REM MD5 97627a7da1e82fbdb7c2a9e95df7f7a4
FILE "Super Puzzle Fighter II Turbo (Europe).bin" BINARY
  TRACK 01 MODE2/2352
    INDEX 01 00:00:00
  TRACK 02 AUDIO
    INDEX 00 49:22:45
    INDEX 01 49:24:45
  TRACK 03 AUDIO
    INDEX 00 53:39:45
    INDEX 01 53:41:45
REM LEADOUT 57:11:45
